<svg width="59" height="59" viewBox="0 0 59 59" fill="none" xmlns="http://www.w3.org/2000/svg">
<rect width="59" height="59" rx="3" fill="#979797"/>
<path fill-rule="evenodd" clip-rule="evenodd" d="M46.5065 18.1974C46.5065 17.5533 45.9951 17.0312 45.3651 17.0312H14.5239C13.8932 17.0312 13.3818 17.5533 13.3818 18.1974V40.8438C13.3818 41.488 13.8932 42.0102 14.5239 42.0102H45.3651C45.9951 42.0102 46.5065 41.488 46.5065 40.8438V18.1974Z" stroke="white" stroke-width="2"/>
<path fill-rule="evenodd" clip-rule="evenodd" d="M21.9704 28.9397C23.6292 28.9397 24.974 27.5677 24.974 25.8751C24.974 24.1826 23.6292 22.8105 21.9704 22.8105C20.3116 22.8105 18.9668 24.1826 18.9668 25.8751C18.9668 27.5677 20.3116 28.9397 21.9704 28.9397Z" stroke="white" stroke-width="2"/>
<path d="M20.5645 42.0104L30.5146 27.71L34.6284 33.3739L39.9195 24.8848L46.5066 34.6583" stroke="white" stroke-width="2"/>
</svg>
