<svg width="110" height="24" viewBox="0 0 110 24" fill="none" xmlns="http://www.w3.org/2000/svg">
<path d="M21.0727 8.13737L18.3829 0.000244141H13.2735L10.5837 8.13737L7.89383 0.000244141H0L7.69107 23.3032H13.4898L15.8282 16.2475L18.1666 23.3032H23.9653L31.6564 0.000244141H23.7626L21.0727 8.13737Z" fill="black"/>
<path d="M70.7605 8.97517L64.3265 0H58.2169V23.303H65.516V14.3549L71.9095 23.303H78.0596V0H70.7605V8.97517Z" fill="black"/>
<path d="M102.268 0H93.1578L88.7513 5.3797V0H81.1954V23.303H88.7513V16.1121L93.712 23.303H102.687L94.0634 10.6513L102.268 0Z" fill="black"/>
<path d="M51.6477 3.41976C50.5934 2.36544 49.3499 1.5274 47.9306 0.919144C46.5249 0.310887 45.011 0 43.416 0C41.821 0 40.3071 0.310887 38.8879 0.919144C37.4686 1.5274 36.225 2.36544 35.1707 3.41976C34.1164 4.47407 33.2784 5.71762 32.6701 7.13688C32.0619 8.55615 31.751 10.07 31.751 11.665C31.751 13.26 32.0619 14.7739 32.6701 16.1932C33.2784 17.6124 34.1164 18.856 35.1707 19.9103C36.225 20.9646 37.4686 21.8026 38.8879 22.4109C40.3071 23.0192 41.821 23.33 43.416 23.33C45.011 23.33 46.5249 23.0192 47.9441 22.4109C49.3634 21.8026 50.6069 20.9646 51.6613 19.9103C52.7156 18.856 53.5536 17.6124 54.1619 16.1932C54.7701 14.7739 55.081 13.26 55.081 11.665C55.081 10.07 54.7701 8.55615 54.1619 7.13688C53.5401 5.7041 52.7021 4.47407 51.6477 3.41976ZM47.5251 13.3952C47.2953 13.9358 46.9709 14.4089 46.5654 14.8144C46.1599 15.2199 45.6868 15.5443 45.1462 15.7741C44.6055 16.0039 44.0243 16.1256 43.4025 16.1256C42.7807 16.1256 42.1995 16.0039 41.6588 15.7741C41.1181 15.5443 40.645 15.2199 40.2395 14.8144C39.834 14.4089 39.5231 13.9358 39.2798 13.3952C39.0501 12.8545 38.9284 12.2733 38.9284 11.6515C38.9284 11.0297 39.0501 10.462 39.2798 9.90783C39.5096 9.36716 39.834 8.89407 40.2395 8.48857C40.645 8.08306 41.1181 7.77217 41.6588 7.52887C42.1995 7.29909 42.7807 7.17743 43.4025 7.17743C44.0243 7.17743 44.592 7.29909 45.1462 7.52887C45.6868 7.75866 46.1599 8.08306 46.5654 8.48857C46.9709 8.89407 47.2818 9.36716 47.5251 9.90783C47.7549 10.4485 47.8765 11.0297 47.8765 11.6515C47.8765 12.2733 47.7549 12.8545 47.5251 13.3952Z" fill="black"/>
<path d="M107.418 5.14991C105.999 5.14991 104.837 3.98746 104.837 2.5682C104.837 1.14893 105.999 0 107.418 0C108.838 0 110 1.14893 110 2.58171C110 4.0145 108.838 5.14991 107.418 5.14991ZM107.418 0.55419C106.31 0.55419 105.404 1.45982 105.404 2.5682C105.404 3.67658 106.31 4.5822 107.418 4.5822C108.527 4.5822 109.432 3.67658 109.432 2.5682C109.432 1.45982 108.54 0.55419 107.418 0.55419Z" fill="black"/>
<path d="M106.661 1.5542H107.378C107.581 1.5542 107.689 1.56772 107.77 1.60827C108 1.70288 108.148 1.90564 108.148 2.20301C108.148 2.41928 108.04 2.66258 107.837 2.7572C107.837 2.7572 107.864 2.79775 107.918 2.87885L108.31 3.59524H107.756L107.391 2.90588H107.161V3.59524H106.661V1.5542ZM107.378 2.48686C107.54 2.48686 107.635 2.39224 107.635 2.23004C107.635 2.08136 107.581 1.98674 107.324 1.98674H107.148V2.48686H107.378Z" fill="black"/>
</svg>
