<svg width="94" height="20" viewBox="0 0 94 20" fill="none" xmlns="http://www.w3.org/2000/svg">
<path d="M18.0049 6.95531L15.7081 0H11.3442L9.04739 6.95531L6.75059 0H0L6.57084 19.9172H11.5239L13.5262 13.8856L15.5284 19.9172H20.4815L27.0523 0H20.3017L18.0049 6.95531Z" fill="white"/>
<path d="M60.4622 7.6743L54.9649 0H49.7422V19.9172H55.9835V12.2729L61.4459 19.9172H66.6985V0H60.4622V7.6743Z" fill="white"/>
<path d="M87.3945 0H79.6004L75.8357 4.59859V0H69.3896V19.9172H75.8357V13.7658L80.0797 19.9172H87.7491L80.3743 9.10731L87.3945 0Z" fill="white"/>
<path d="M44.134 2.9257C43.2353 2.02695 42.1767 1.31295 40.9634 0.793673C39.7501 0.274397 38.4619 0.00976562 37.0938 0.00976562C35.7257 0.00976562 34.4375 0.269404 33.2242 0.793673C32.0109 1.31295 30.9524 2.02196 30.0536 2.9257C29.1549 3.82445 28.4409 4.88297 27.9216 6.09628C27.3973 7.30959 27.1377 8.5978 27.1377 9.96589C27.1377 11.334 27.3973 12.6222 27.9216 13.8355C28.4409 15.0488 29.1549 16.1073 30.0536 17.0061C30.9524 17.9048 32.0109 18.6188 33.2242 19.1381C34.4375 19.6574 35.7257 19.922 37.0938 19.922C38.4619 19.922 39.7501 19.6624 40.9634 19.1381C42.1767 18.6188 43.2353 17.9048 44.134 17.0061C45.0328 16.1073 45.7468 15.0488 46.266 13.8355C46.7853 12.6222 47.0499 11.334 47.0499 9.96589C47.0499 8.5978 46.7903 7.30959 46.266 6.09628C45.7468 4.88297 45.0377 3.82445 44.134 2.9257ZM40.6089 11.4488C40.4092 11.9132 40.1346 12.3176 39.7901 12.6621C39.4455 13.0066 39.0411 13.2813 38.5767 13.481C38.1124 13.6807 37.6181 13.7806 37.0938 13.7806C36.5646 13.7806 36.0702 13.6807 35.6059 13.481C35.1415 13.2813 34.7371 13.0066 34.3926 12.6621C34.0481 12.3176 33.7734 11.9132 33.5737 11.4488C33.374 10.9845 33.2741 10.4902 33.2741 9.96589C33.2741 9.43663 33.374 8.94232 33.5737 8.47796C33.7734 8.01361 34.0481 7.60917 34.3926 7.26465C34.7371 6.92013 35.1415 6.64552 35.6059 6.44579C36.0702 6.24607 36.5646 6.14621 37.0938 6.14621C37.6181 6.14621 38.1174 6.24607 38.5767 6.44579C39.0411 6.64552 39.4455 6.92013 39.7901 7.26465C40.1346 7.60917 40.4092 8.01361 40.6089 8.47796C40.8086 8.94232 40.9085 9.43663 40.9085 9.96589C40.9085 10.4952 40.8086 10.9895 40.6089 11.4488Z" fill="white"/>
<path d="M91.7976 4.40386C90.5843 4.40386 89.5957 3.41524 89.5957 2.20193C89.5957 0.988622 90.5843 0 91.7976 0C93.0109 0 93.9996 0.988622 93.9996 2.20193C93.9996 3.41524 93.0109 4.40386 91.7976 4.40386ZM91.7976 0.479332C90.849 0.479332 90.075 1.25325 90.075 2.20193C90.075 3.15061 90.849 3.92453 91.7976 3.92453C92.7463 3.92453 93.5202 3.15061 93.5202 2.20193C93.5202 1.25325 92.7463 0.479332 91.7976 0.479332Z" fill="white"/>
<path d="M91.1476 1.3252H91.7567C91.9365 1.3252 92.0214 1.33518 92.0963 1.36514C92.296 1.44004 92.4208 1.61978 92.4208 1.87443C92.4208 2.05917 92.3309 2.26389 92.1562 2.35376V2.35875C92.1562 2.35875 92.1811 2.38871 92.2211 2.46361L92.5606 3.07775H92.0813L91.7717 2.48857H91.572V3.07775H91.1426V1.3252H91.1476ZM91.7667 2.11909C91.9015 2.11909 91.9914 2.04419 91.9914 1.90439C91.9914 1.77457 91.9415 1.69468 91.7268 1.69468H91.582V2.11909H91.7667Z" fill="white"/>
</svg>
